# xmcd CD database file
#
# Track frame offsets:
#	150
#	33662
#	55572
#	72592
#	86930
#	109380
#	124222
#	161728
#	191363
#
# Disc length: 2794 seconds
#
# Revision: 3
# Processed by: cddbd v1.5.1PL2 Copyright (c) Steve Scherf et al.
# Submitted via: CDex 1.51
#
DISCID=820ae809
DTITLE=Charles Mingus - Mingus Ah Um
DYEAR=1959
DGENRE=Jazz
TTITLE0=Better Git It In Your Soull
TTITLE1=Goodbye Pork Pie Hat
TTITLE2=Boogie Stop Shuffle
TTITLE3=Self-Portrait In Three Colors
TTITLE4=Open Letter To Duke
TTITLE5=Bird Calls
TTITLE6=Fables Of Faubus
TTITLE7=Pussy Cat Dues
TTITLE8=Jelly Roll
EXTD=YEAR: 1959
EXTT0=
EXTT1=
EXTT2=
EXTT3=
EXTT4=
EXTT5=
EXTT6=
EXTT7=
EXTT8=
PLAYORDER=
